# Blender 5.0.1
# www.blender.org
mtllib rover.mtl
o RoverChassis
v -0.528541 0.155000 0.070000
v -0.528541 0.075000 0.070000
v -0.528541 0.155000 0.470000
v -0.528541 0.075000 0.470000
v 0.071459 0.155000 0.070000
v 0.071459 0.075000 0.070000
v 0.071459 0.155000 0.470000
v 0.071459 0.075000 0.470000
vn -1.0000 -0.0000 -0.0000
vn -0.0000 -0.0000 -1.0000
vn 1.0000 -0.0000 -0.0000
vn -0.0000 -0.0000 1.0000
vn -0.0000 -1.0000 -0.0000
vn -0.0000 1.0000 -0.0000
vt 0.375000 0.000000
vt 0.625000 0.000000
vt 0.625000 0.250000
vt 0.375000 0.250000
vt 0.625000 0.500000
vt 0.375000 0.500000
vt 0.625000 0.750000
vt 0.375000 0.750000
vt 0.625000 1.000000
vt 0.375000 1.000000
vt 0.125000 0.500000
vt 0.125000 0.750000
vt 0.875000 0.500000
vt 0.875000 0.750000
s 0
usemtl FrameMetal
f 1/1/1 2/2/1 4/3/1 3/4/1
f 3/4/2 4/3/2 8/5/2 7/6/2
f 7/6/3 8/5/3 6/7/3 5/8/3
f 5/8/4 6/7/4 2/9/4 1/10/4
f 3/11/5 7/6/5 5/8/5 1/12/5
f 8/5/6 4/13/6 2/14/6 6/7/6
o Wheel
v -0.398541 0.185000 0.060000
v -0.398541 0.185000 0.000000
v -0.400270 0.202558 0.060000
v -0.400270 0.202558 0.000000
v -0.405392 0.219442 0.060000
v -0.405392 0.219442 0.000000
v -0.413709 0.235001 0.060000
v -0.413709 0.235001 0.000000
v -0.424901 0.248640 0.060000
v -0.424901 0.248640 0.000000
v -0.438540 0.259832 0.060000
v -0.438540 0.259832 0.000000
v -0.454099 0.268149 0.060000
v -0.454099 0.268149 0.000000
v -0.470983 0.273271 0.060000
v -0.470983 0.273271 0.000000
v -0.488541 0.275000 0.060000
v -0.488541 0.275000 0.000000
v -0.506099 0.273271 0.060000
v -0.506099 0.273271 0.000000
v -0.522983 0.268149 0.060000
v -0.522983 0.268149 0.000000
v -0.538542 0.259832 0.060000
v -0.538542 0.259832 0.000000
v -0.552181 0.248640 0.060000
v -0.552181 0.248640 0.000000
v -0.563373 0.235001 0.060000
v -0.563373 0.235001 0.000000
v -0.571690 0.219442 0.060000
v -0.571690 0.219442 0.000000
v -0.576812 0.202558 0.060000
v -0.576812 0.202558 0.000000
v -0.578541 0.185000 0.060000
v -0.578541 0.185000 0.000000
v -0.576812 0.167442 0.060000
v -0.576812 0.167442 0.000000
v -0.571690 0.150558 0.060000
v -0.571690 0.150558 0.000000
v -0.563373 0.134999 0.060000
v -0.563373 0.134999 0.000000
v -0.552181 0.121360 0.060000
v -0.552181 0.121360 0.000000
v -0.538542 0.110168 0.060000
v -0.538542 0.110168 0.000000
v -0.522983 0.101851 0.060000
v -0.522983 0.101851 0.000000
v -0.506099 0.096729 0.060000
v -0.506099 0.096729 0.000000
v -0.488541 0.095000 0.060000
v -0.488541 0.095000 0.000000
v -0.470983 0.096729 0.060000
v -0.470983 0.096729 0.000000
v -0.454099 0.101851 0.060000
v -0.454099 0.101851 0.000000
v -0.438540 0.110168 0.060000
v -0.438540 0.110168 0.000000
v -0.424901 0.121360 0.060000
v -0.424901 0.121360 0.000000
v -0.413709 0.134999 0.060000
v -0.413709 0.134999 0.000000
v -0.405392 0.150558 0.060000
v -0.405392 0.150558 0.000000
v -0.400270 0.167442 0.060000
v -0.400270 0.167442 0.000000
vn 0.9952 -0.0980 -0.0000
vn 0.9569 -0.2903 -0.0000
vn 0.8819 -0.4714 -0.0000
vn 0.7730 -0.6344 -0.0000
vn 0.6344 -0.7730 -0.0000
vn 0.4714 -0.8819 -0.0000
vn 0.2903 -0.9569 -0.0000
vn 0.0980 -0.9952 -0.0000
vn -0.0980 -0.9952 -0.0000
vn -0.2903 -0.9569 -0.0000
vn -0.4714 -0.8819 -0.0000
vn -0.6344 -0.7730 -0.0000
vn -0.7730 -0.6344 -0.0000
vn -0.8819 -0.4714 -0.0000
vn -0.9569 -0.2903 -0.0000
vn -0.9952 -0.0980 -0.0000
vn -0.9952 0.0980 -0.0000
vn -0.9569 0.2903 -0.0000
vn -0.8819 0.4714 -0.0000
vn -0.7730 0.6344 -0.0000
vn -0.6344 0.7730 -0.0000
vn -0.4714 0.8819 -0.0000
vn -0.2903 0.9569 -0.0000
vn -0.0980 0.9952 -0.0000
vn 0.0980 0.9952 -0.0000
vn 0.2903 0.9569 -0.0000
vn 0.4714 0.8819 -0.0000
vn 0.6344 0.7730 -0.0000
vn 0.7730 0.6344 -0.0000
vn 0.8819 0.4714 -0.0000
vn -0.0000 -0.0000 1.0000
vn 0.9569 0.2903 -0.0000
vn 0.9952 0.0980 -0.0000
vn -0.0000 -0.0000 -1.0000
vt 1.000000 0.500000
vt 1.000000 1.000000
vt 0.968750 1.000000
vt 0.968750 0.500000
vt 0.937500 1.000000
vt 0.937500 0.500000
vt 0.906250 1.000000
vt 0.906250 0.500000
vt 0.875000 1.000000
vt 0.875000 0.500000
vt 0.843750 1.000000
vt 0.843750 0.500000
vt 0.812500 1.000000
vt 0.812500 0.500000
vt 0.781250 1.000000
vt 0.781250 0.500000
vt 0.750000 1.000000
vt 0.750000 0.500000
vt 0.718750 1.000000
vt 0.718750 0.500000
vt 0.687500 1.000000
vt 0.687500 0.500000
vt 0.656250 1.000000
vt 0.656250 0.500000
vt 0.625000 1.000000
vt 0.625000 0.500000
vt 0.593750 1.000000
vt 0.593750 0.500000
vt 0.562500 1.000000
vt 0.562500 0.500000
vt 0.531250 1.000000
vt 0.531250 0.500000
vt 0.500000 1.000000
vt 0.500000 0.500000
vt 0.468750 1.000000
vt 0.468750 0.500000
vt 0.437500 1.000000
vt 0.437500 0.500000
vt 0.406250 1.000000
vt 0.406250 0.500000
vt 0.375000 1.000000
vt 0.375000 0.500000
vt 0.343750 1.000000
vt 0.343750 0.500000
vt 0.312500 1.000000
vt 0.312500 0.500000
vt 0.281250 1.000000
vt 0.281250 0.500000
vt 0.250000 1.000000
vt 0.250000 0.500000
vt 0.218750 1.000000
vt 0.218750 0.500000
vt 0.187500 1.000000
vt 0.187500 0.500000
vt 0.156250 1.000000
vt 0.156250 0.500000
vt 0.125000 1.000000
vt 0.125000 0.500000
vt 0.093750 1.000000
vt 0.093750 0.500000
vt 0.062500 1.000000
vt 0.062500 0.500000
vt 0.296822 0.485388
vt 0.250000 0.490000
vt 0.203178 0.485388
vt 0.158156 0.471731
vt 0.116663 0.449553
vt 0.080294 0.419706
vt 0.050447 0.383337
vt 0.028269 0.341844
vt 0.014612 0.296822
vt 0.010000 0.250000
vt 0.014612 0.203178
vt 0.028269 0.158156
vt 0.050447 0.116663
vt 0.080294 0.080294
vt 0.116663 0.050447
vt 0.158156 0.028269
vt 0.203178 0.014612
vt 0.250000 0.010000
vt 0.296822 0.014612
vt 0.341844 0.028269
vt 0.383337 0.050447
vt 0.419706 0.080294
vt 0.449553 0.116663
vt 0.471731 0.158156
vt 0.485388 0.203178
vt 0.490000 0.250000
vt 0.485388 0.296822
vt 0.471731 0.341844
vt 0.449553 0.383337
vt 0.419706 0.419706
vt 0.383337 0.449553
vt 0.341844 0.471731
vt 0.031250 1.000000
vt 0.031250 0.500000
vt 0.000000 1.000000
vt 0.000000 0.500000
vt 0.750000 0.490000
vt 0.796822 0.485388
vt 0.841844 0.471731
vt 0.883337 0.449553
vt 0.919706 0.419706
vt 0.949553 0.383337
vt 0.971731 0.341844
vt 0.985388 0.296822
vt 0.990000 0.250000
vt 0.985388 0.203178
vt 0.971731 0.158156
vt 0.949553 0.116663
vt 0.919706 0.080294
vt 0.883337 0.050447
vt 0.841844 0.028269
vt 0.796822 0.014612
vt 0.750000 0.010000
vt 0.703178 0.014612
vt 0.658156 0.028269
vt 0.616663 0.050447
vt 0.580294 0.080294
vt 0.550447 0.116663
vt 0.528269 0.158156
vt 0.514612 0.203178
vt 0.510000 0.250000
vt 0.514612 0.296822
vt 0.528269 0.341844
vt 0.550447 0.383337
vt 0.580294 0.419706
vt 0.616663 0.449553
vt 0.658156 0.471731
vt 0.703178 0.485388
s 0
usemtl Tire
f 9/15/7 10/16/7 12/17/7 11/18/7
f 11/18/8 12/17/8 14/19/8 13/20/8
f 13/20/9 14/19/9 16/21/9 15/22/9
f 15/22/10 16/21/10 18/23/10 17/24/10
f 17/24/11 18/23/11 20/25/11 19/26/11
f 19/26/12 20/25/12 22/27/12 21/28/12
f 21/28/13 22/27/13 24/29/13 23/30/13
f 23/30/14 24/29/14 26/31/14 25/32/14
f 25/32/15 26/31/15 28/33/15 27/34/15
f 27/34/16 28/33/16 30/35/16 29/36/16
f 29/36/17 30/35/17 32/37/17 31/38/17
f 31/38/18 32/37/18 34/39/18 33/40/18
f 33/40/19 34/39/19 36/41/19 35/42/19
f 35/42/20 36/41/20 38/43/20 37/44/20
f 37/44/21 38/43/21 40/45/21 39/46/21
f 39/46/22 40/45/22 42/47/22 41/48/22
f 41/48/23 42/47/23 44/49/23 43/50/23
f 43/50/24 44/49/24 46/51/24 45/52/24
f 45/52/25 46/51/25 48/53/25 47/54/25
f 47/54/26 48/53/26 50/55/26 49/56/26
f 49/56/27 50/55/27 52/57/27 51/58/27
f 51/58/28 52/57/28 54/59/28 53/60/28
f 53/60/29 54/59/29 56/61/29 55/62/29
f 55/62/30 56/61/30 58/63/30 57/64/30
f 57/64/31 58/63/31 60/65/31 59/66/31
f 59/66/32 60/65/32 62/67/32 61/68/32
f 61/68/33 62/67/33 64/69/33 63/70/33
f 63/70/34 64/69/34 66/71/34 65/72/34
f 65/72/35 66/71/35 68/73/35 67/74/35
f 67/74/36 68/73/36 70/75/36 69/76/36
f 12/77/37 10/78/37 72/79/37 70/80/37 68/81/37 66/82/37 64/83/37 62/84/37 60/85/37 58/86/37 56/87/37 54/88/37 52/89/37 50/90/37 48/91/37 46/92/37 44/93/37 42/94/37 40/95/37 38/96/37 36/97/37 34/98/37 32/99/37 30/100/37 28/101/37 26/102/37 24/103/37 22/104/37 20/105/37 18/106/37 16/107/37 14/108/37
f 69/76/38 70/75/38 72/109/38 71/110/38
f 71/110/39 72/109/39 10/111/39 9/112/39
f 9/113/40 11/114/40 13/115/40 15/116/40 17/117/40 19/118/40 21/119/40 23/120/40 25/121/40 27/122/40 29/123/40 31/124/40 33/125/40 35/126/40 37/127/40 39/128/40 41/129/40 43/130/40 45/131/40 47/132/40 49/133/40 51/134/40 53/135/40 55/136/40 57/137/40 59/138/40 61/139/40 63/140/40 65/141/40 67/142/40 69/143/40 71/144/40
o Wheel.001
v -0.398541 0.185000 0.540000
v -0.398541 0.185000 0.480000
v -0.400270 0.202558 0.540000
v -0.400270 0.202558 0.480000
v -0.405392 0.219442 0.540000
v -0.405392 0.219442 0.480000
v -0.413709 0.235001 0.540000
v -0.413709 0.235001 0.480000
v -0.424901 0.248640 0.540000
v -0.424901 0.248640 0.480000
v -0.438540 0.259832 0.540000
v -0.438540 0.259832 0.480000
v -0.454099 0.268149 0.540000
v -0.454099 0.268149 0.480000
v -0.470983 0.273271 0.540000
v -0.470983 0.273271 0.480000
v -0.488541 0.275000 0.540000
v -0.488541 0.275000 0.480000
v -0.506099 0.273271 0.540000
v -0.506099 0.273271 0.480000
v -0.522983 0.268149 0.540000
v -0.522983 0.268149 0.480000
v -0.538542 0.259832 0.540000
v -0.538542 0.259832 0.480000
v -0.552181 0.248640 0.540000
v -0.552181 0.248640 0.480000
v -0.563373 0.235001 0.540000
v -0.563373 0.235001 0.480000
v -0.571690 0.219442 0.540000
v -0.571690 0.219442 0.480000
v -0.576812 0.202558 0.540000
v -0.576812 0.202558 0.480000
v -0.578541 0.185000 0.540000
v -0.578541 0.185000 0.480000
v -0.576812 0.167442 0.540000
v -0.576812 0.167442 0.480000
v -0.571690 0.150558 0.540000
v -0.571690 0.150558 0.480000
v -0.563373 0.134999 0.540000
v -0.563373 0.134999 0.480000
v -0.552181 0.121360 0.540000
v -0.552181 0.121360 0.480000
v -0.538542 0.110168 0.540000
v -0.538542 0.110168 0.480000
v -0.522983 0.101851 0.540000
v -0.522983 0.101851 0.480000
v -0.506099 0.096729 0.540000
v -0.506099 0.096729 0.480000
v -0.488541 0.095000 0.540000
v -0.488541 0.095000 0.480000
v -0.470983 0.096729 0.540000
v -0.470983 0.096729 0.480000
v -0.454099 0.101851 0.540000
v -0.454099 0.101851 0.480000
v -0.438540 0.110168 0.540000
v -0.438540 0.110168 0.480000
v -0.424901 0.121360 0.540000
v -0.424901 0.121360 0.480000
v -0.413709 0.134999 0.540000
v -0.413709 0.134999 0.480000
v -0.405392 0.150558 0.540000
v -0.405392 0.150558 0.480000
v -0.400270 0.167442 0.540000
v -0.400270 0.167442 0.480000
vn 0.9952 -0.0980 -0.0000
vn 0.9569 -0.2903 -0.0000
vn 0.8819 -0.4714 -0.0000
vn 0.7730 -0.6344 -0.0000
vn 0.6344 -0.7730 -0.0000
vn 0.4714 -0.8819 -0.0000
vn 0.2903 -0.9569 -0.0000
vn 0.0980 -0.9952 -0.0000
vn -0.0980 -0.9952 -0.0000
vn -0.2903 -0.9569 -0.0000
vn -0.4714 -0.8819 -0.0000
vn -0.6344 -0.7730 -0.0000
vn -0.7730 -0.6344 -0.0000
vn -0.8819 -0.4714 -0.0000
vn -0.9569 -0.2903 -0.0000
vn -0.9952 -0.0980 -0.0000
vn -0.9952 0.0980 -0.0000
vn -0.9569 0.2903 -0.0000
vn -0.8819 0.4714 -0.0000
vn -0.7730 0.6344 -0.0000
vn -0.6344 0.7730 -0.0000
vn -0.4714 0.8819 -0.0000
vn -0.2903 0.9569 -0.0000
vn -0.0980 0.9952 -0.0000
vn 0.0980 0.9952 -0.0000
vn 0.2903 0.9569 -0.0000
vn 0.4714 0.8819 -0.0000
vn 0.6344 0.7730 -0.0000
vn 0.7730 0.6344 -0.0000
vn 0.8819 0.4714 -0.0000
vn -0.0000 -0.0000 1.0000
vn 0.9569 0.2903 -0.0000
vn 0.9952 0.0980 -0.0000
vn -0.0000 -0.0000 -1.0000
vt 1.000000 0.500000
vt 1.000000 1.000000
vt 0.968750 1.000000
vt 0.968750 0.500000
vt 0.937500 1.000000
vt 0.937500 0.500000
vt 0.906250 1.000000
vt 0.906250 0.500000
vt 0.875000 1.000000
vt 0.875000 0.500000
vt 0.843750 1.000000
vt 0.843750 0.500000
vt 0.812500 1.000000
vt 0.812500 0.500000
vt 0.781250 1.000000
vt 0.781250 0.500000
vt 0.750000 1.000000
vt 0.750000 0.500000
vt 0.718750 1.000000
vt 0.718750 0.500000
vt 0.687500 1.000000
vt 0.687500 0.500000
vt 0.656250 1.000000
vt 0.656250 0.500000
vt 0.625000 1.000000
vt 0.625000 0.500000
vt 0.593750 1.000000
vt 0.593750 0.500000
vt 0.562500 1.000000
vt 0.562500 0.500000
vt 0.531250 1.000000
vt 0.531250 0.500000
vt 0.500000 1.000000
vt 0.500000 0.500000
vt 0.468750 1.000000
vt 0.468750 0.500000
vt 0.437500 1.000000
vt 0.437500 0.500000
vt 0.406250 1.000000
vt 0.406250 0.500000
vt 0.375000 1.000000
vt 0.375000 0.500000
vt 0.343750 1.000000
vt 0.343750 0.500000
vt 0.312500 1.000000
vt 0.312500 0.500000
vt 0.281250 1.000000
vt 0.281250 0.500000
vt 0.250000 1.000000
vt 0.250000 0.500000
vt 0.218750 1.000000
vt 0.218750 0.500000
vt 0.187500 1.000000
vt 0.187500 0.500000
vt 0.156250 1.000000
vt 0.156250 0.500000
vt 0.125000 1.000000
vt 0.125000 0.500000
vt 0.093750 1.000000
vt 0.093750 0.500000
vt 0.062500 1.000000
vt 0.062500 0.500000
vt 0.296822 0.485388
vt 0.250000 0.490000
vt 0.203178 0.485388
vt 0.158156 0.471731
vt 0.116663 0.449553
vt 0.080294 0.419706
vt 0.050447 0.383337
vt 0.028269 0.341844
vt 0.014612 0.296822
vt 0.010000 0.250000
vt 0.014612 0.203178
vt 0.028269 0.158156
vt 0.050447 0.116663
vt 0.080294 0.080294
vt 0.116663 0.050447
vt 0.158156 0.028269
vt 0.203178 0.014612
vt 0.250000 0.010000
vt 0.296822 0.014612
vt 0.341844 0.028269
vt 0.383337 0.050447
vt 0.419706 0.080294
vt 0.449553 0.116663
vt 0.471731 0.158156
vt 0.485388 0.203178
vt 0.490000 0.250000
vt 0.485388 0.296822
vt 0.471731 0.341844
vt 0.449553 0.383337
vt 0.419706 0.419706
vt 0.383337 0.449553
vt 0.341844 0.471731
vt 0.031250 1.000000
vt 0.031250 0.500000
vt 0.000000 1.000000
vt 0.000000 0.500000
vt 0.750000 0.490000
vt 0.796822 0.485388
vt 0.841844 0.471731
vt 0.883337 0.449553
vt 0.919706 0.419706
vt 0.949553 0.383337
vt 0.971731 0.341844
vt 0.985388 0.296822
vt 0.990000 0.250000
vt 0.985388 0.203178
vt 0.971731 0.158156
vt 0.949553 0.116663
vt 0.919706 0.080294
vt 0.883337 0.050447
vt 0.841844 0.028269
vt 0.796822 0.014612
vt 0.750000 0.010000
vt 0.703178 0.014612
vt 0.658156 0.028269
vt 0.616663 0.050447
vt 0.580294 0.080294
vt 0.550447 0.116663
vt 0.528269 0.158156
vt 0.514612 0.203178
vt 0.510000 0.250000
vt 0.514612 0.296822
vt 0.528269 0.341844
vt 0.550447 0.383337
vt 0.580294 0.419706
vt 0.616663 0.449553
vt 0.658156 0.471731
vt 0.703178 0.485388
s 0
usemtl Tire
f 73/145/41 74/146/41 76/147/41 75/148/41
f 75/148/42 76/147/42 78/149/42 77/150/42
f 77/150/43 78/149/43 80/151/43 79/152/43
f 79/152/44 80/151/44 82/153/44 81/154/44
f 81/154/45 82/153/45 84/155/45 83/156/45
f 83/156/46 84/155/46 86/157/46 85/158/46
f 85/158/47 86/157/47 88/159/47 87/160/47
f 87/160/48 88/159/48 90/161/48 89/162/48
f 89/162/49 90/161/49 92/163/49 91/164/49
f 91/164/50 92/163/50 94/165/50 93/166/50
f 93/166/51 94/165/51 96/167/51 95/168/51
f 95/168/52 96/167/52 98/169/52 97/170/52
f 97/170/53 98/169/53 100/171/53 99/172/53
f 99/172/54 100/171/54 102/173/54 101/174/54
f 101/174/55 102/173/55 104/175/55 103/176/55
f 103/176/56 104/175/56 106/177/56 105/178/56
f 105/178/57 106/177/57 108/179/57 107/180/57
f 107/180/58 108/179/58 110/181/58 109/182/58
f 109/182/59 110/181/59 112/183/59 111/184/59
f 111/184/60 112/183/60 114/185/60 113/186/60
f 113/186/61 114/185/61 116/187/61 115/188/61
f 115/188/62 116/187/62 118/189/62 117/190/62
f 117/190/63 118/189/63 120/191/63 119/192/63
f 119/192/64 120/191/64 122/193/64 121/194/64
f 121/194/65 122/193/65 124/195/65 123/196/65
f 123/196/66 124/195/66 126/197/66 125/198/66
f 125/198/67 126/197/67 128/199/67 127/200/67
f 127/200/68 128/199/68 130/201/68 129/202/68
f 129/202/69 130/201/69 132/203/69 131/204/69
f 131/204/70 132/203/70 134/205/70 133/206/70
f 76/207/71 74/208/71 136/209/71 134/210/71 132/211/71 130/212/71 128/213/71 126/214/71 124/215/71 122/216/71 120/217/71 118/218/71 116/219/71 114/220/71 112/221/71 110/222/71 108/223/71 106/224/71 104/225/71 102/226/71 100/227/71 98/228/71 96/229/71 94/230/71 92/231/71 90/232/71 88/233/71 86/234/71 84/235/71 82/236/71 80/237/71 78/238/71
f 133/206/72 134/205/72 136/239/72 135/240/72
f 135/240/73 136/239/73 74/241/73 73/242/73
f 73/243/74 75/244/74 77/245/74 79/246/74 81/247/74 83/248/74 85/249/74 87/250/74 89/251/74 91/252/74 93/253/74 95/254/74 97/255/74 99/256/74 101/257/74 103/258/74 105/259/74 107/260/74 109/261/74 111/262/74 113/263/74 115/264/74 117/265/74 119/266/74 121/267/74 123/268/74 125/269/74 127/270/74 129/271/74 131/272/74 133/273/74 135/274/74
o Wheel.002
v 0.121459 0.185000 0.060000
v 0.121459 0.185000 0.000000
v 0.119730 0.202558 0.060000
v 0.119730 0.202558 0.000000
v 0.114608 0.219442 0.060000
v 0.114608 0.219442 0.000000
v 0.106291 0.235001 0.060000
v 0.106291 0.235001 0.000000
v 0.095099 0.248640 0.060000
v 0.095099 0.248640 0.000000
v 0.081460 0.259832 0.060000
v 0.081460 0.259832 0.000000
v 0.065900 0.268149 0.060000
v 0.065900 0.268149 0.000000
v 0.049017 0.273271 0.060000
v 0.049017 0.273271 0.000000
v 0.031459 0.275000 0.060000
v 0.031459 0.275000 0.000000
v 0.013901 0.273271 0.060000
v 0.013901 0.273271 0.000000
v -0.002983 0.268149 0.060000
v -0.002983 0.268149 0.000000
v -0.018542 0.259832 0.060000
v -0.018542 0.259832 0.000000
v -0.032181 0.248640 0.060000
v -0.032181 0.248640 0.000000
v -0.043373 0.235001 0.060000
v -0.043373 0.235001 0.000000
v -0.051690 0.219442 0.060000
v -0.051690 0.219442 0.000000
v -0.056812 0.202558 0.060000
v -0.056812 0.202558 0.000000
v -0.058541 0.185000 0.060000
v -0.058541 0.185000 0.000000
v -0.056812 0.167442 0.060000
v -0.056812 0.167442 0.000000
v -0.051690 0.150558 0.060000
v -0.051690 0.150558 0.000000
v -0.043373 0.134999 0.060000
v -0.043373 0.134999 0.000000
v -0.032181 0.121360 0.060000
v -0.032181 0.121360 0.000000
v -0.018542 0.110168 0.060000
v -0.018542 0.110168 0.000000
v -0.002983 0.101851 0.060000
v -0.002983 0.101851 0.000000
v 0.013901 0.096729 0.060000
v 0.013901 0.096729 0.000000
v 0.031459 0.095000 0.060000
v 0.031459 0.095000 0.000000
v 0.049017 0.096729 0.060000
v 0.049017 0.096729 0.000000
v 0.065900 0.101851 0.060000
v 0.065900 0.101851 0.000000
v 0.081460 0.110168 0.060000
v 0.081460 0.110168 0.000000
v 0.095099 0.121360 0.060000
v 0.095099 0.121360 0.000000
v 0.106291 0.134999 0.060000
v 0.106291 0.134999 0.000000
v 0.114608 0.150558 0.060000
v 0.114608 0.150558 0.000000
v 0.119730 0.167442 0.060000
v 0.119730 0.167442 0.000000
vn 0.9952 -0.0980 -0.0000
vn 0.9569 -0.2903 -0.0000
vn 0.8819 -0.4714 -0.0000
vn 0.7730 -0.6344 -0.0000
vn 0.6344 -0.7730 -0.0000
vn 0.4714 -0.8819 -0.0000
vn 0.2903 -0.9569 -0.0000
vn 0.0980 -0.9952 -0.0000
vn -0.0980 -0.9952 -0.0000
vn -0.2903 -0.9569 -0.0000
vn -0.4714 -0.8819 -0.0000
vn -0.6344 -0.7730 -0.0000
vn -0.7730 -0.6344 -0.0000
vn -0.8819 -0.4714 -0.0000
vn -0.9569 -0.2903 -0.0000
vn -0.9952 -0.0980 -0.0000
vn -0.9952 0.0980 -0.0000
vn -0.9569 0.2903 -0.0000
vn -0.8819 0.4714 -0.0000
vn -0.7730 0.6344 -0.0000
vn -0.6344 0.7730 -0.0000
vn -0.4714 0.8819 -0.0000
vn -0.2903 0.9569 -0.0000
vn -0.0980 0.9952 -0.0000
vn 0.0980 0.9952 -0.0000
vn 0.2903 0.9569 -0.0000
vn 0.4714 0.8819 -0.0000
vn 0.6344 0.7730 -0.0000
vn 0.7730 0.6344 -0.0000
vn 0.8819 0.4714 -0.0000
vn -0.0000 -0.0000 1.0000
vn 0.9569 0.2903 -0.0000
vn 0.9952 0.0980 -0.0000
vn -0.0000 -0.0000 -1.0000
vt 1.000000 0.500000
vt 1.000000 1.000000
vt 0.968750 1.000000
vt 0.968750 0.500000
vt 0.937500 1.000000
vt 0.937500 0.500000
vt 0.906250 1.000000
vt 0.906250 0.500000
vt 0.875000 1.000000
vt 0.875000 0.500000
vt 0.843750 1.000000
vt 0.843750 0.500000
vt 0.812500 1.000000
vt 0.812500 0.500000
vt 0.781250 1.000000
vt 0.781250 0.500000
vt 0.750000 1.000000
vt 0.750000 0.500000
vt 0.718750 1.000000
vt 0.718750 0.500000
vt 0.687500 1.000000
vt 0.687500 0.500000
vt 0.656250 1.000000
vt 0.656250 0.500000
vt 0.625000 1.000000
vt 0.625000 0.500000
vt 0.593750 1.000000
vt 0.593750 0.500000
vt 0.562500 1.000000
vt 0.562500 0.500000
vt 0.531250 1.000000
vt 0.531250 0.500000
vt 0.500000 1.000000
vt 0.500000 0.500000
vt 0.468750 1.000000
vt 0.468750 0.500000
vt 0.437500 1.000000
vt 0.437500 0.500000
vt 0.406250 1.000000
vt 0.406250 0.500000
vt 0.375000 1.000000
vt 0.375000 0.500000
vt 0.343750 1.000000
vt 0.343750 0.500000
vt 0.312500 1.000000
vt 0.312500 0.500000
vt 0.281250 1.000000
vt 0.281250 0.500000
vt 0.250000 1.000000
vt 0.250000 0.500000
vt 0.218750 1.000000
vt 0.218750 0.500000
vt 0.187500 1.000000
vt 0.187500 0.500000
vt 0.156250 1.000000
vt 0.156250 0.500000
vt 0.125000 1.000000
vt 0.125000 0.500000
vt 0.093750 1.000000
vt 0.093750 0.500000
vt 0.062500 1.000000
vt 0.062500 0.500000
vt 0.296822 0.485388
vt 0.250000 0.490000
vt 0.203178 0.485388
vt 0.158156 0.471731
vt 0.116663 0.449553
vt 0.080294 0.419706
vt 0.050447 0.383337
vt 0.028269 0.341844
vt 0.014612 0.296822
vt 0.010000 0.250000
vt 0.014612 0.203178
vt 0.028269 0.158156
vt 0.050447 0.116663
vt 0.080294 0.080294
vt 0.116663 0.050447
vt 0.158156 0.028269
vt 0.203178 0.014612
vt 0.250000 0.010000
vt 0.296822 0.014612
vt 0.341844 0.028269
vt 0.383337 0.050447
vt 0.419706 0.080294
vt 0.449553 0.116663
vt 0.471731 0.158156
vt 0.485388 0.203178
vt 0.490000 0.250000
vt 0.485388 0.296822
vt 0.471731 0.341844
vt 0.449553 0.383337
vt 0.419706 0.419706
vt 0.383337 0.449553
vt 0.341844 0.471731
vt 0.031250 1.000000
vt 0.031250 0.500000
vt 0.000000 1.000000
vt 0.000000 0.500000
vt 0.750000 0.490000
vt 0.796822 0.485388
vt 0.841844 0.471731
vt 0.883337 0.449553
vt 0.919706 0.419706
vt 0.949553 0.383337
vt 0.971731 0.341844
vt 0.985388 0.296822
vt 0.990000 0.250000
vt 0.985388 0.203178
vt 0.971731 0.158156
vt 0.949553 0.116663
vt 0.919706 0.080294
vt 0.883337 0.050447
vt 0.841844 0.028269
vt 0.796822 0.014612
vt 0.750000 0.010000
vt 0.703178 0.014612
vt 0.658156 0.028269
vt 0.616663 0.050447
vt 0.580294 0.080294
vt 0.550447 0.116663
vt 0.528269 0.158156
vt 0.514612 0.203178
vt 0.510000 0.250000
vt 0.514612 0.296822
vt 0.528269 0.341844
vt 0.550447 0.383337
vt 0.580294 0.419706
vt 0.616663 0.449553
vt 0.658156 0.471731
vt 0.703178 0.485388
s 0
usemtl Tire
f 137/275/75 138/276/75 140/277/75 139/278/75
f 139/278/76 140/277/76 142/279/76 141/280/76
f 141/280/77 142/279/77 144/281/77 143/282/77
f 143/282/78 144/281/78 146/283/78 145/284/78
f 145/284/79 146/283/79 148/285/79 147/286/79
f 147/286/80 148/285/80 150/287/80 149/288/80
f 149/288/81 150/287/81 152/289/81 151/290/81
f 151/290/82 152/289/82 154/291/82 153/292/82
f 153/292/83 154/291/83 156/293/83 155/294/83
f 155/294/84 156/293/84 158/295/84 157/296/84
f 157/296/85 158/295/85 160/297/85 159/298/85
f 159/298/86 160/297/86 162/299/86 161/300/86
f 161/300/87 162/299/87 164/301/87 163/302/87
f 163/302/88 164/301/88 166/303/88 165/304/88
f 165/304/89 166/303/89 168/305/89 167/306/89
f 167/306/90 168/305/90 170/307/90 169/308/90
f 169/308/91 170/307/91 172/309/91 171/310/91
f 171/310/92 172/309/92 174/311/92 173/312/92
f 173/312/93 174/311/93 176/313/93 175/314/93
f 175/314/94 176/313/94 178/315/94 177/316/94
f 177/316/95 178/315/95 180/317/95 179/318/95
f 179/318/96 180/317/96 182/319/96 181/320/96
f 181/320/97 182/319/97 184/321/97 183/322/97
f 183/322/98 184/321/98 186/323/98 185/324/98
f 185/324/99 186/323/99 188/325/99 187/326/99
f 187/326/100 188/325/100 190/327/100 189/328/100
f 189/328/101 190/327/101 192/329/101 191/330/101
f 191/330/102 192/329/102 194/331/102 193/332/102
f 193/332/103 194/331/103 196/333/103 195/334/103
f 195/334/104 196/333/104 198/335/104 197/336/104
f 140/337/105 138/338/105 200/339/105 198/340/105 196/341/105 194/342/105 192/343/105 190/344/105 188/345/105 186/346/105 184/347/105 182/348/105 180/349/105 178/350/105 176/351/105 174/352/105 172/353/105 170/354/105 168/355/105 166/356/105 164/357/105 162/358/105 160/359/105 158/360/105 156/361/105 154/362/105 152/363/105 150/364/105 148/365/105 146/366/105 144/367/105 142/368/105
f 197/336/106 198/335/106 200/369/106 199/370/106
f 199/370/107 200/369/107 138/371/107 137/372/107
f 137/373/108 139/374/108 141/375/108 143/376/108 145/377/108 147/378/108 149/379/108 151/380/108 153/381/108 155/382/108 157/383/108 159/384/108 161/385/108 163/386/108 165/387/108 167/388/108 169/389/108 171/390/108 173/391/108 175/392/108 177/393/108 179/394/108 181/395/108 183/396/108 185/397/108 187/398/108 189/399/108 191/400/108 193/401/108 195/402/108 197/403/108 199/404/108
o Wheel.003
v 0.121459 0.185000 0.540000
v 0.121459 0.185000 0.480000
v 0.119730 0.202558 0.540000
v 0.119730 0.202558 0.480000
v 0.114608 0.219442 0.540000
v 0.114608 0.219442 0.480000
v 0.106291 0.235001 0.540000
v 0.106291 0.235001 0.480000
v 0.095099 0.248640 0.540000
v 0.095099 0.248640 0.480000
v 0.081460 0.259832 0.540000
v 0.081460 0.259832 0.480000
v 0.065900 0.268149 0.540000
v 0.065900 0.268149 0.480000
v 0.049017 0.273271 0.540000
v 0.049017 0.273271 0.480000
v 0.031459 0.275000 0.540000
v 0.031459 0.275000 0.480000
v 0.013901 0.273271 0.540000
v 0.013901 0.273271 0.480000
v -0.002983 0.268149 0.540000
v -0.002983 0.268149 0.480000
v -0.018542 0.259832 0.540000
v -0.018542 0.259832 0.480000
v -0.032181 0.248640 0.540000
v -0.032181 0.248640 0.480000
v -0.043373 0.235001 0.540000
v -0.043373 0.235001 0.480000
v -0.051690 0.219442 0.540000
v -0.051690 0.219442 0.480000
v -0.056812 0.202558 0.540000
v -0.056812 0.202558 0.480000
v -0.058541 0.185000 0.540000
v -0.058541 0.185000 0.480000
v -0.056812 0.167442 0.540000
v -0.056812 0.167442 0.480000
v -0.051690 0.150558 0.540000
v -0.051690 0.150558 0.480000
v -0.043373 0.134999 0.540000
v -0.043373 0.134999 0.480000
v -0.032181 0.121360 0.540000
v -0.032181 0.121360 0.480000
v -0.018542 0.110168 0.540000
v -0.018542 0.110168 0.480000
v -0.002983 0.101851 0.540000
v -0.002983 0.101851 0.480000
v 0.013901 0.096729 0.540000
v 0.013901 0.096729 0.480000
v 0.031459 0.095000 0.540000
v 0.031459 0.095000 0.480000
v 0.049017 0.096729 0.540000
v 0.049017 0.096729 0.480000
v 0.065900 0.101851 0.540000
v 0.065900 0.101851 0.480000
v 0.081460 0.110168 0.540000
v 0.081460 0.110168 0.480000
v 0.095099 0.121360 0.540000
v 0.095099 0.121360 0.480000
v 0.106291 0.134999 0.540000
v 0.106291 0.134999 0.480000
v 0.114608 0.150558 0.540000
v 0.114608 0.150558 0.480000
v 0.119730 0.167442 0.540000
v 0.119730 0.167442 0.480000
vn 0.9952 -0.0980 -0.0000
vn 0.9569 -0.2903 -0.0000
vn 0.8819 -0.4714 -0.0000
vn 0.7730 -0.6344 -0.0000
vn 0.6344 -0.7730 -0.0000
vn 0.4714 -0.8819 -0.0000
vn 0.2903 -0.9569 -0.0000
vn 0.0980 -0.9952 -0.0000
vn -0.0980 -0.9952 -0.0000
vn -0.2903 -0.9569 -0.0000
vn -0.4714 -0.8819 -0.0000
vn -0.6344 -0.7730 -0.0000
vn -0.7730 -0.6344 -0.0000
vn -0.8819 -0.4714 -0.0000
vn -0.9569 -0.2903 -0.0000
vn -0.9952 -0.0980 -0.0000
vn -0.9952 0.0980 -0.0000
vn -0.9569 0.2903 -0.0000
vn -0.8819 0.4714 -0.0000
vn -0.7730 0.6344 -0.0000
vn -0.6344 0.7730 -0.0000
vn -0.4714 0.8819 -0.0000
vn -0.2903 0.9569 -0.0000
vn -0.0980 0.9952 -0.0000
vn 0.0980 0.9952 -0.0000
vn 0.2903 0.9569 -0.0000
vn 0.4714 0.8819 -0.0000
vn 0.6344 0.7730 -0.0000
vn 0.7730 0.6344 -0.0000
vn 0.8819 0.4714 -0.0000
vn -0.0000 -0.0000 1.0000
vn 0.9569 0.2903 -0.0000
vn 0.9952 0.0980 -0.0000
vn -0.0000 -0.0000 -1.0000
vt 1.000000 0.500000
vt 1.000000 1.000000
vt 0.968750 1.000000
vt 0.968750 0.500000
vt 0.937500 1.000000
vt 0.937500 0.500000
vt 0.906250 1.000000
vt 0.906250 0.500000
vt 0.875000 1.000000
vt 0.875000 0.500000
vt 0.843750 1.000000
vt 0.843750 0.500000
vt 0.812500 1.000000
vt 0.812500 0.500000
vt 0.781250 1.000000
vt 0.781250 0.500000
vt 0.750000 1.000000
vt 0.750000 0.500000
vt 0.718750 1.000000
vt 0.718750 0.500000
vt 0.687500 1.000000
vt 0.687500 0.500000
vt 0.656250 1.000000
vt 0.656250 0.500000
vt 0.625000 1.000000
vt 0.625000 0.500000
vt 0.593750 1.000000
vt 0.593750 0.500000
vt 0.562500 1.000000
vt 0.562500 0.500000
vt 0.531250 1.000000
vt 0.531250 0.500000
vt 0.500000 1.000000
vt 0.500000 0.500000
vt 0.468750 1.000000
vt 0.468750 0.500000
vt 0.437500 1.000000
vt 0.437500 0.500000
vt 0.406250 1.000000
vt 0.406250 0.500000
vt 0.375000 1.000000
vt 0.375000 0.500000
vt 0.343750 1.000000
vt 0.343750 0.500000
vt 0.312500 1.000000
vt 0.312500 0.500000
vt 0.281250 1.000000
vt 0.281250 0.500000
vt 0.250000 1.000000
vt 0.250000 0.500000
vt 0.218750 1.000000
vt 0.218750 0.500000
vt 0.187500 1.000000
vt 0.187500 0.500000
vt 0.156250 1.000000
vt 0.156250 0.500000
vt 0.125000 1.000000
vt 0.125000 0.500000
vt 0.093750 1.000000
vt 0.093750 0.500000
vt 0.062500 1.000000
vt 0.062500 0.500000
vt 0.296822 0.485388
vt 0.250000 0.490000
vt 0.203178 0.485388
vt 0.158156 0.471731
vt 0.116663 0.449553
vt 0.080294 0.419706
vt 0.050447 0.383337
vt 0.028269 0.341844
vt 0.014612 0.296822
vt 0.010000 0.250000
vt 0.014612 0.203178
vt 0.028269 0.158156
vt 0.050447 0.116663
vt 0.080294 0.080294
vt 0.116663 0.050447
vt 0.158156 0.028269
vt 0.203178 0.014612
vt 0.250000 0.010000
vt 0.296822 0.014612
vt 0.341844 0.028269
vt 0.383337 0.050447
vt 0.419706 0.080294
vt 0.449553 0.116663
vt 0.471731 0.158156
vt 0.485388 0.203178
vt 0.490000 0.250000
vt 0.485388 0.296822
vt 0.471731 0.341844
vt 0.449553 0.383337
vt 0.419706 0.419706
vt 0.383337 0.449553
vt 0.341844 0.471731
vt 0.031250 1.000000
vt 0.031250 0.500000
vt 0.000000 1.000000
vt 0.000000 0.500000
vt 0.750000 0.490000
vt 0.796822 0.485388
vt 0.841844 0.471731
vt 0.883337 0.449553
vt 0.919706 0.419706
vt 0.949553 0.383337
vt 0.971731 0.341844
vt 0.985388 0.296822
vt 0.990000 0.250000
vt 0.985388 0.203178
vt 0.971731 0.158156
vt 0.949553 0.116663
vt 0.919706 0.080294
vt 0.883337 0.050447
vt 0.841844 0.028269
vt 0.796822 0.014612
vt 0.750000 0.010000
vt 0.703178 0.014612
vt 0.658156 0.028269
vt 0.616663 0.050447
vt 0.580294 0.080294
vt 0.550447 0.116663
vt 0.528269 0.158156
vt 0.514612 0.203178
vt 0.510000 0.250000
vt 0.514612 0.296822
vt 0.528269 0.341844
vt 0.550447 0.383337
vt 0.580294 0.419706
vt 0.616663 0.449553
vt 0.658156 0.471731
vt 0.703178 0.485388
s 0
usemtl Tire
f 201/405/109 202/406/109 204/407/109 203/408/109
f 203/408/110 204/407/110 206/409/110 205/410/110
f 205/410/111 206/409/111 208/411/111 207/412/111
f 207/412/112 208/411/112 210/413/112 209/414/112
f 209/414/113 210/413/113 212/415/113 211/416/113
f 211/416/114 212/415/114 214/417/114 213/418/114
f 213/418/115 214/417/115 216/419/115 215/420/115
f 215/420/116 216/419/116 218/421/116 217/422/116
f 217/422/117 218/421/117 220/423/117 219/424/117
f 219/424/118 220/423/118 222/425/118 221/426/118
f 221/426/119 222/425/119 224/427/119 223/428/119
f 223/428/120 224/427/120 226/429/120 225/430/120
f 225/430/121 226/429/121 228/431/121 227/432/121
f 227/432/122 228/431/122 230/433/122 229/434/122
f 229/434/123 230/433/123 232/435/123 231/436/123
f 231/436/124 232/435/124 234/437/124 233/438/124
f 233/438/125 234/437/125 236/439/125 235/440/125
f 235/440/126 236/439/126 238/441/126 237/442/126
f 237/442/127 238/441/127 240/443/127 239/444/127
f 239/444/128 240/443/128 242/445/128 241/446/128
f 241/446/129 242/445/129 244/447/129 243/448/129
f 243/448/130 244/447/130 246/449/130 245/450/130
f 245/450/131 246/449/131 248/451/131 247/452/131
f 247/452/132 248/451/132 250/453/132 249/454/132
f 249/454/133 250/453/133 252/455/133 251/456/133
f 251/456/134 252/455/134 254/457/134 253/458/134
f 253/458/135 254/457/135 256/459/135 255/460/135
f 255/460/136 256/459/136 258/461/136 257/462/136
f 257/462/137 258/461/137 260/463/137 259/464/137
f 259/464/138 260/463/138 262/465/138 261/466/138
f 204/467/139 202/468/139 264/469/139 262/470/139 260/471/139 258/472/139 256/473/139 254/474/139 252/475/139 250/476/139 248/477/139 246/478/139 244/479/139 242/480/139 240/481/139 238/482/139 236/483/139 234/484/139 232/485/139 230/486/139 228/487/139 226/488/139 224/489/139 222/490/139 220/491/139 218/492/139 216/493/139 214/494/139 212/495/139 210/496/139 208/497/139 206/498/139
f 261/466/140 262/465/140 264/499/140 263/500/140
f 263/500/141 264/499/141 202/501/141 201/502/141
f 201/503/142 203/504/142 205/505/142 207/506/142 209/507/142 211/508/142 213/509/142 215/510/142 217/511/142 219/512/142 221/513/142 223/514/142 225/515/142 227/516/142 229/517/142 231/518/142 233/519/142 235/520/142 237/521/142 239/522/142 241/523/142 243/524/142 245/525/142 247/526/142 249/527/142 251/528/142 253/529/142 255/530/142 257/531/142 259/532/142 261/533/142 263/534/142
o ControlBox
v -0.228541 0.045000 0.170000
v -0.228541 -0.055000 0.170000
v -0.228541 0.045000 0.370000
v -0.228541 -0.055000 0.370000
v -0.068541 0.045000 0.170000
v -0.068541 -0.055000 0.170000
v -0.068541 0.045000 0.370000
v -0.068541 -0.055000 0.370000
vn -1.0000 -0.0000 -0.0000
vn -0.0000 -0.0000 -1.0000
vn 1.0000 -0.0000 -0.0000
vn -0.0000 -0.0000 1.0000
vn -0.0000 -1.0000 -0.0000
vn -0.0000 1.0000 -0.0000
vt 0.375000 0.000000
vt 0.625000 0.000000
vt 0.625000 0.250000
vt 0.375000 0.250000
vt 0.625000 0.500000
vt 0.375000 0.500000
vt 0.625000 0.750000
vt 0.375000 0.750000
vt 0.625000 1.000000
vt 0.375000 1.000000
vt 0.125000 0.500000
vt 0.125000 0.750000
vt 0.875000 0.500000
vt 0.875000 0.750000
s 0
usemtl PCB
f 265/535/143 266/536/143 268/537/143 267/538/143
f 267/538/144 268/537/144 272/539/144 271/540/144
f 271/540/145 272/539/145 270/541/145 269/542/145
f 269/542/146 270/541/146 266/543/146 265/544/146
f 267/545/147 271/540/147 269/542/147 265/546/147
f 272/539/148 268/547/148 266/548/148 270/541/148
o CameraMast
v -0.378541 0.025000 0.282000
v -0.378541 -0.275000 0.282000
v -0.376200 0.025000 0.281769
v -0.376200 -0.275000 0.281769
v -0.373949 0.025000 0.281086
v -0.373949 -0.275000 0.281086
v -0.371874 0.025000 0.279978
v -0.371874 -0.275000 0.279978
v -0.370056 0.025000 0.278485
v -0.370056 -0.275000 0.278485
v -0.368563 0.025000 0.276667
v -0.368563 -0.275000 0.276667
v -0.367454 0.025000 0.274592
v -0.367454 -0.275000 0.274592
v -0.366772 0.025000 0.272341
v -0.366772 -0.275000 0.272341
v -0.366541 0.025000 0.270000
v -0.366541 -0.275000 0.270000
v -0.366772 0.025000 0.267659
v -0.366772 -0.275000 0.267659
v -0.367454 0.025000 0.265408
v -0.367454 -0.275000 0.265408
v -0.368563 0.025000 0.263333
v -0.368563 -0.275000 0.263333
v -0.370056 0.025000 0.261515
v -0.370056 -0.275000 0.261515
v -0.371874 0.025000 0.260022
v -0.371874 -0.275000 0.260022
v -0.373949 0.025000 0.258913
v -0.373949 -0.275000 0.258913
v -0.376200 0.025000 0.258230
v -0.376200 -0.275000 0.258230
v -0.378541 0.025000 0.258000
v -0.378541 -0.275000 0.258000
v -0.380882 0.025000 0.258230
v -0.380882 -0.275000 0.258230
v -0.383133 0.025000 0.258913
v -0.383133 -0.275000 0.258913
v -0.385208 0.025000 0.260022
v -0.385208 -0.275000 0.260022
v -0.387026 0.025000 0.261515
v -0.387026 -0.275000 0.261515
v -0.388519 0.025000 0.263333
v -0.388519 -0.275000 0.263333
v -0.389628 0.025000 0.265408
v -0.389628 -0.275000 0.265408
v -0.390310 0.025000 0.267659
v -0.390310 -0.275000 0.267659
v -0.390541 0.025000 0.270000
v -0.390541 -0.275000 0.270000
v -0.390310 0.025000 0.272341
v -0.390310 -0.275000 0.272341
v -0.389628 0.025000 0.274592
v -0.389628 -0.275000 0.274592
v -0.388519 0.025000 0.276667
v -0.388519 -0.275000 0.276667
v -0.387026 0.025000 0.278485
v -0.387026 -0.275000 0.278485
v -0.385208 0.025000 0.279978
v -0.385208 -0.275000 0.279978
v -0.383133 0.025000 0.281086
v -0.383133 -0.275000 0.281086
v -0.380882 0.025000 0.281769
v -0.380882 -0.275000 0.281769
vn 0.0980 -0.0000 -0.9952
vn 0.2903 -0.0000 -0.9569
vn 0.4714 -0.0000 -0.8819
vn 0.6344 -0.0000 -0.7730
vn 0.7730 -0.0000 -0.6344
vn 0.8819 -0.0000 -0.4714
vn 0.9569 -0.0000 -0.2903
vn 0.9952 -0.0000 -0.0980
vn 0.9952 -0.0000 0.0980
vn 0.9569 -0.0000 0.2903
vn 0.8819 -0.0000 0.4714
vn 0.7730 -0.0000 0.6344
vn 0.6344 -0.0000 0.7730
vn 0.4714 -0.0000 0.8819
vn 0.2903 -0.0000 0.9569
vn 0.0980 -0.0000 0.9952
vn -0.0980 -0.0000 0.9952
vn -0.2903 -0.0000 0.9569
vn -0.4714 -0.0000 0.8819
vn -0.6344 -0.0000 0.7730
vn -0.7730 -0.0000 0.6344
vn -0.8819 -0.0000 0.4714
vn -0.9569 -0.0000 0.2903
vn -0.9952 -0.0000 0.0980
vn -0.9952 -0.0000 -0.0980
vn -0.9569 -0.0000 -0.2903
vn -0.8819 -0.0000 -0.4714
vn -0.7730 -0.0000 -0.6344
vn -0.6344 -0.0000 -0.7730
vn -0.4714 -0.0000 -0.8819
vn -0.0000 1.0000 -0.0000
vn -0.2903 -0.0000 -0.9569
vn -0.0980 -0.0000 -0.9952
vn -0.0000 -1.0000 -0.0000
vt 1.000000 0.500000
vt 1.000000 1.000000
vt 0.968750 1.000000
vt 0.968750 0.500000
vt 0.937500 1.000000
vt 0.937500 0.500000
vt 0.906250 1.000000
vt 0.906250 0.500000
vt 0.875000 1.000000
vt 0.875000 0.500000
vt 0.843750 1.000000
vt 0.843750 0.500000
vt 0.812500 1.000000
vt 0.812500 0.500000
vt 0.781250 1.000000
vt 0.781250 0.500000
vt 0.750000 1.000000
vt 0.750000 0.500000
vt 0.718750 1.000000
vt 0.718750 0.500000
vt 0.687500 1.000000
vt 0.687500 0.500000
vt 0.656250 1.000000
vt 0.656250 0.500000
vt 0.625000 1.000000
vt 0.625000 0.500000
vt 0.593750 1.000000
vt 0.593750 0.500000
vt 0.562500 1.000000
vt 0.562500 0.500000
vt 0.531250 1.000000
vt 0.531250 0.500000
vt 0.500000 1.000000
vt 0.500000 0.500000
vt 0.468750 1.000000
vt 0.468750 0.500000
vt 0.437500 1.000000
vt 0.437500 0.500000
vt 0.406250 1.000000
vt 0.406250 0.500000
vt 0.375000 1.000000
vt 0.375000 0.500000
vt 0.343750 1.000000
vt 0.343750 0.500000
vt 0.312500 1.000000
vt 0.312500 0.500000
vt 0.281250 1.000000
vt 0.281250 0.500000
vt 0.250000 1.000000
vt 0.250000 0.500000
vt 0.218750 1.000000
vt 0.218750 0.500000
vt 0.187500 1.000000
vt 0.187500 0.500000
vt 0.156250 1.000000
vt 0.156250 0.500000
vt 0.125000 1.000000
vt 0.125000 0.500000
vt 0.093750 1.000000
vt 0.093750 0.500000
vt 0.062500 1.000000
vt 0.062500 0.500000
vt 0.296822 0.485388
vt 0.250000 0.490000
vt 0.203178 0.485388
vt 0.158156 0.471731
vt 0.116663 0.449553
vt 0.080294 0.419706
vt 0.050447 0.383337
vt 0.028269 0.341844
vt 0.014612 0.296822
vt 0.010000 0.250000
vt 0.014612 0.203178
vt 0.028269 0.158156
vt 0.050447 0.116663
vt 0.080294 0.080294
vt 0.116663 0.050447
vt 0.158156 0.028269
vt 0.203178 0.014612
vt 0.250000 0.010000
vt 0.296822 0.014612
vt 0.341844 0.028269
vt 0.383337 0.050447
vt 0.419706 0.080294
vt 0.449553 0.116663
vt 0.471731 0.158156
vt 0.485388 0.203178
vt 0.490000 0.250000
vt 0.485388 0.296822
vt 0.471731 0.341844
vt 0.449553 0.383337
vt 0.419706 0.419706
vt 0.383337 0.449553
vt 0.341844 0.471731
vt 0.031250 1.000000
vt 0.031250 0.500000
vt 0.000000 1.000000
vt 0.000000 0.500000
vt 0.750000 0.490000
vt 0.796822 0.485388
vt 0.841844 0.471731
vt 0.883337 0.449553
vt 0.919706 0.419706
vt 0.949553 0.383337
vt 0.971731 0.341844
vt 0.985388 0.296822
vt 0.990000 0.250000
vt 0.985388 0.203178
vt 0.971731 0.158156
vt 0.949553 0.116663
vt 0.919706 0.080294
vt 0.883337 0.050447
vt 0.841844 0.028269
vt 0.796822 0.014612
vt 0.750000 0.010000
vt 0.703178 0.014612
vt 0.658156 0.028269
vt 0.616663 0.050447
vt 0.580294 0.080294
vt 0.550447 0.116663
vt 0.528269 0.158156
vt 0.514612 0.203178
vt 0.510000 0.250000
vt 0.514612 0.296822
vt 0.528269 0.341844
vt 0.550447 0.383337
vt 0.580294 0.419706
vt 0.616663 0.449553
vt 0.658156 0.471731
vt 0.703178 0.485388
s 0
usemtl FrameMetal
f 273/549/149 274/550/149 276/551/149 275/552/149
f 275/552/150 276/551/150 278/553/150 277/554/150
f 277/554/151 278/553/151 280/555/151 279/556/151
f 279/556/152 280/555/152 282/557/152 281/558/152
f 281/558/153 282/557/153 284/559/153 283/560/153
f 283/560/154 284/559/154 286/561/154 285/562/154
f 285/562/155 286/561/155 288/563/155 287/564/155
f 287/564/156 288/563/156 290/565/156 289/566/156
f 289/566/157 290/565/157 292/567/157 291/568/157
f 291/568/158 292/567/158 294/569/158 293/570/158
f 293/570/159 294/569/159 296/571/159 295/572/159
f 295/572/160 296/571/160 298/573/160 297/574/160
f 297/574/161 298/573/161 300/575/161 299/576/161
f 299/576/162 300/575/162 302/577/162 301/578/162
f 301/578/163 302/577/163 304/579/163 303/580/163
f 303/580/164 304/579/164 306/581/164 305/582/164
f 305/582/165 306/581/165 308/583/165 307/584/165
f 307/584/166 308/583/166 310/585/166 309/586/166
f 309/586/167 310/585/167 312/587/167 311/588/167
f 311/588/168 312/587/168 314/589/168 313/590/168
f 313/590/169 314/589/169 316/591/169 315/592/169
f 315/592/170 316/591/170 318/593/170 317/594/170
f 317/594/171 318/593/171 320/595/171 319/596/171
f 319/596/172 320/595/172 322/597/172 321/598/172
f 321/598/173 322/597/173 324/599/173 323/600/173
f 323/600/174 324/599/174 326/601/174 325/602/174
f 325/602/175 326/601/175 328/603/175 327/604/175
f 327/604/176 328/603/176 330/605/176 329/606/176
f 329/606/177 330/605/177 332/607/177 331/608/177
f 331/608/178 332/607/178 334/609/178 333/610/178
f 276/611/179 274/612/179 336/613/179 334/614/179 332/615/179 330/616/179 328/617/179 326/618/179 324/619/179 322/620/179 320/621/179 318/622/179 316/623/179 314/624/179 312/625/179 310/626/179 308/627/179 306/628/179 304/629/179 302/630/179 300/631/179 298/632/179 296/633/179 294/634/179 292/635/179 290/636/179 288/637/179 286/638/179 284/639/179 282/640/179 280/641/179 278/642/179
f 333/610/180 334/609/180 336/643/180 335/644/180
f 335/644/181 336/643/181 274/645/181 273/646/181
f 273/647/182 275/648/182 277/649/182 279/650/182 281/651/182 283/652/182 285/653/182 287/654/182 289/655/182 291/656/182 293/657/182 295/658/182 297/659/182 299/660/182 301/661/182 303/662/182 305/663/182 307/664/182 309/665/182 311/666/182 313/667/182 315/668/182 317/669/182 319/670/182 321/671/182 323/672/182 325/673/182 327/674/182 329/675/182 331/676/182 333/677/182 335/678/182
o Camera
v -0.403541 0.055000 0.240000
v -0.403541 0.015000 0.240000
v -0.403541 0.055000 0.300000
v -0.403541 0.015000 0.300000
v -0.353541 0.055000 0.240000
v -0.353541 0.015000 0.240000
v -0.353541 0.055000 0.300000
v -0.353541 0.015000 0.300000
vn -1.0000 -0.0000 -0.0000
vn -0.0000 -0.0000 -1.0000
vn 1.0000 -0.0000 -0.0000
vn -0.0000 -0.0000 1.0000
vn -0.0000 -1.0000 -0.0000
vn -0.0000 1.0000 -0.0000
vt 0.375000 0.000000
vt 0.625000 0.000000
vt 0.625000 0.250000
vt 0.375000 0.250000
vt 0.625000 0.500000
vt 0.375000 0.500000
vt 0.625000 0.750000
vt 0.375000 0.750000
vt 0.625000 1.000000
vt 0.375000 1.000000
vt 0.125000 0.500000
vt 0.125000 0.750000
vt 0.875000 0.500000
vt 0.875000 0.750000
s 0
usemtl Tire
f 337/679/183 338/680/183 340/681/183 339/682/183
f 339/682/184 340/681/184 344/683/184 343/684/184
f 343/684/185 344/683/185 342/685/185 341/686/185
f 341/686/186 342/685/186 338/687/186 337/688/186
f 339/689/187 343/684/187 341/686/187 337/690/187
f 344/683/188 340/691/188 338/692/188 342/685/188
o LaserArm
v 0.093156 -0.002606 0.285000
v -0.050238 -0.207394 0.285000
v 0.095553 -0.004284 0.284712
v -0.047841 -0.209073 0.284712
v 0.097858 -0.005898 0.283858
v -0.045536 -0.210686 0.283858
v 0.099982 -0.007386 0.282472
v -0.043412 -0.212174 0.282472
v 0.101844 -0.008690 0.280606
v -0.041550 -0.213478 0.280606
v 0.103373 -0.009760 0.278333
v -0.040022 -0.214548 0.278333
v 0.104508 -0.010555 0.275740
v -0.038886 -0.215343 0.275740
v 0.105207 -0.011044 0.272926
v -0.038187 -0.215832 0.272926
v 0.105443 -0.011210 0.270000
v -0.037951 -0.215998 0.270000
v 0.105207 -0.011044 0.267074
v -0.038187 -0.215832 0.267074
v 0.104508 -0.010555 0.264260
v -0.038886 -0.215343 0.264260
v 0.103373 -0.009760 0.261667
v -0.040022 -0.214548 0.261667
v 0.101844 -0.008690 0.259393
v -0.041550 -0.213478 0.259393
v 0.099982 -0.007386 0.257528
v -0.043412 -0.212174 0.257528
v 0.097858 -0.005898 0.256142
v -0.045536 -0.210686 0.256142
v 0.095553 -0.004284 0.255288
v -0.047841 -0.209073 0.255288
v 0.093156 -0.002606 0.255000
v -0.050238 -0.207394 0.255000
v 0.090759 -0.000927 0.255288
v -0.052635 -0.205716 0.255288
v 0.088454 0.000686 0.256142
v -0.054940 -0.204102 0.256142
v 0.086330 0.002174 0.257528
v -0.057065 -0.202614 0.257528
v 0.084468 0.003478 0.259393
v -0.058926 -0.201310 0.259393
v 0.082939 0.004548 0.261667
v -0.060455 -0.200240 0.261667
v 0.081804 0.005343 0.264260
v -0.061590 -0.199445 0.264260
v 0.081105 0.005832 0.267074
v -0.062289 -0.198956 0.267074
v 0.080869 0.005998 0.270000
v -0.062525 -0.198790 0.270000
v 0.081105 0.005832 0.272926
v -0.062289 -0.198956 0.272926
v 0.081804 0.005343 0.275740
v -0.061590 -0.199445 0.275740
v 0.082939 0.004548 0.278333
v -0.060455 -0.200240 0.278333
v 0.084468 0.003478 0.280606
v -0.058926 -0.201310 0.280606
v 0.086330 0.002174 0.282472
v -0.057065 -0.202614 0.282472
v 0.088454 0.000686 0.283858
v -0.054940 -0.204102 0.283858
v 0.090759 -0.000927 0.284712
v -0.052635 -0.205716 0.284712
vn 0.0803 0.0562 -0.9952
vn 0.2378 0.1665 -0.9569
vn 0.3861 0.2704 -0.8819
vn 0.5197 0.3639 -0.7730
vn 0.6332 0.4434 -0.6344
vn 0.7224 0.5058 -0.4714
vn 0.7839 0.5489 -0.2903
vn 0.8152 0.5708 -0.0980
vn 0.8152 0.5708 0.0980
vn 0.7839 0.5489 0.2903
vn 0.7224 0.5058 0.4714
vn 0.6332 0.4434 0.6344
vn 0.5197 0.3639 0.7730
vn 0.3861 0.2704 0.8819
vn 0.2378 0.1665 0.9569
vn 0.0803 0.0562 0.9952
vn -0.0803 -0.0562 0.9952
vn -0.2378 -0.1665 0.9569
vn -0.3861 -0.2704 0.8819
vn -0.5197 -0.3639 0.7730
vn -0.6332 -0.4434 0.6344
vn -0.7224 -0.5058 0.4714
vn -0.7839 -0.5489 0.2903
vn -0.8152 -0.5708 0.0980
vn -0.8152 -0.5708 -0.0980
vn -0.7839 -0.5489 -0.2903
vn -0.7224 -0.5058 -0.4714
vn -0.6332 -0.4434 -0.6344
vn -0.5197 -0.3639 -0.7730
vn -0.3861 -0.2704 -0.8819
vn -0.5736 0.8192 -0.0000
vn -0.2378 -0.1665 -0.9569
vn -0.0803 -0.0562 -0.9952
vn 0.5736 -0.8192 -0.0000
vt 1.000000 0.500000
vt 1.000000 1.000000
vt 0.968750 1.000000
vt 0.968750 0.500000
vt 0.937500 1.000000
vt 0.937500 0.500000
vt 0.906250 1.000000
vt 0.906250 0.500000
vt 0.875000 1.000000
vt 0.875000 0.500000
vt 0.843750 1.000000
vt 0.843750 0.500000
vt 0.812500 1.000000
vt 0.812500 0.500000
vt 0.781250 1.000000
vt 0.781250 0.500000
vt 0.750000 1.000000
vt 0.750000 0.500000
vt 0.718750 1.000000
vt 0.718750 0.500000
vt 0.687500 1.000000
vt 0.687500 0.500000
vt 0.656250 1.000000
vt 0.656250 0.500000
vt 0.625000 1.000000
vt 0.625000 0.500000
vt 0.593750 1.000000
vt 0.593750 0.500000
vt 0.562500 1.000000
vt 0.562500 0.500000
vt 0.531250 1.000000
vt 0.531250 0.500000
vt 0.500000 1.000000
vt 0.500000 0.500000
vt 0.468750 1.000000
vt 0.468750 0.500000
vt 0.437500 1.000000
vt 0.437500 0.500000
vt 0.406250 1.000000
vt 0.406250 0.500000
vt 0.375000 1.000000
vt 0.375000 0.500000
vt 0.343750 1.000000
vt 0.343750 0.500000
vt 0.312500 1.000000
vt 0.312500 0.500000
vt 0.281250 1.000000
vt 0.281250 0.500000
vt 0.250000 1.000000
vt 0.250000 0.500000
vt 0.218750 1.000000
vt 0.218750 0.500000
vt 0.187500 1.000000
vt 0.187500 0.500000
vt 0.156250 1.000000
vt 0.156250 0.500000
vt 0.125000 1.000000
vt 0.125000 0.500000
vt 0.093750 1.000000
vt 0.093750 0.500000
vt 0.062500 1.000000
vt 0.062500 0.500000
vt 0.296822 0.485388
vt 0.250000 0.490000
vt 0.203178 0.485388
vt 0.158156 0.471731
vt 0.116663 0.449553
vt 0.080294 0.419706
vt 0.050447 0.383337
vt 0.028269 0.341844
vt 0.014612 0.296822
vt 0.010000 0.250000
vt 0.014612 0.203178
vt 0.028269 0.158156
vt 0.050447 0.116663
vt 0.080294 0.080294
vt 0.116663 0.050447
vt 0.158156 0.028269
vt 0.203178 0.014612
vt 0.250000 0.010000
vt 0.296822 0.014612
vt 0.341844 0.028269
vt 0.383337 0.050447
vt 0.419706 0.080294
vt 0.449553 0.116663
vt 0.471731 0.158156
vt 0.485388 0.203178
vt 0.490000 0.250000
vt 0.485388 0.296822
vt 0.471731 0.341844
vt 0.449553 0.383337
vt 0.419706 0.419706
vt 0.383337 0.449553
vt 0.341844 0.471731
vt 0.031250 1.000000
vt 0.031250 0.500000
vt 0.000000 1.000000
vt 0.000000 0.500000
vt 0.750000 0.490000
vt 0.796822 0.485388
vt 0.841844 0.471731
vt 0.883337 0.449553
vt 0.919706 0.419706
vt 0.949553 0.383337
vt 0.971731 0.341844
vt 0.985388 0.296822
vt 0.990000 0.250000
vt 0.985388 0.203178
vt 0.971731 0.158156
vt 0.949553 0.116663
vt 0.919706 0.080294
vt 0.883337 0.050447
vt 0.841844 0.028269
vt 0.796822 0.014612
vt 0.750000 0.010000
vt 0.703178 0.014612
vt 0.658156 0.028269
vt 0.616663 0.050447
vt 0.580294 0.080294
vt 0.550447 0.116663
vt 0.528269 0.158156
vt 0.514612 0.203178
vt 0.510000 0.250000
vt 0.514612 0.296822
vt 0.528269 0.341844
vt 0.550447 0.383337
vt 0.580294 0.419706
vt 0.616663 0.449553
vt 0.658156 0.471731
vt 0.703178 0.485388
s 0
usemtl FrameMetal
f 345/693/189 346/694/189 348/695/189 347/696/189
f 347/696/190 348/695/190 350/697/190 349/698/190
f 349/698/191 350/697/191 352/699/191 351/700/191
f 351/700/192 352/699/192 354/701/192 353/702/192
f 353/702/193 354/701/193 356/703/193 355/704/193
f 355/704/194 356/703/194 358/705/194 357/706/194
f 357/706/195 358/705/195 360/707/195 359/708/195
f 359/708/196 360/707/196 362/709/196 361/710/196
f 361/710/197 362/709/197 364/711/197 363/712/197
f 363/712/198 364/711/198 366/713/198 365/714/198
f 365/714/199 366/713/199 368/715/199 367/716/199
f 367/716/200 368/715/200 370/717/200 369/718/200
f 369/718/201 370/717/201 372/719/201 371/720/201
f 371/720/202 372/719/202 374/721/202 373/722/202
f 373/722/203 374/721/203 376/723/203 375/724/203
f 375/724/204 376/723/204 378/725/204 377/726/204
f 377/726/205 378/725/205 380/727/205 379/728/205
f 379/728/206 380/727/206 382/729/206 381/730/206
f 381/730/207 382/729/207 384/731/207 383/732/207
f 383/732/208 384/731/208 386/733/208 385/734/208
f 385/734/209 386/733/209 388/735/209 387/736/209
f 387/736/210 388/735/210 390/737/210 389/738/210
f 389/738/211 390/737/211 392/739/211 391/740/211
f 391/740/212 392/739/212 394/741/212 393/742/212
f 393/742/213 394/741/213 396/743/213 395/744/213
f 395/744/214 396/743/214 398/745/214 397/746/214
f 397/746/215 398/745/215 400/747/215 399/748/215
f 399/748/216 400/747/216 402/749/216 401/750/216
f 401/750/217 402/749/217 404/751/217 403/752/217
f 403/752/218 404/751/218 406/753/218 405/754/218
f 348/755/219 346/756/219 408/757/219 406/758/219 404/759/219 402/760/219 400/761/219 398/762/219 396/763/219 394/764/219 392/765/219 390/766/219 388/767/219 386/768/219 384/769/219 382/770/219 380/771/219 378/772/219 376/773/219 374/774/219 372/775/219 370/776/219 368/777/219 366/778/219 364/779/219 362/780/219 360/781/219 358/782/219 356/783/219 354/784/219 352/785/219 350/786/219
f 405/754/220 406/753/220 408/787/220 407/788/220
f 407/788/221 408/787/221 346/789/221 345/790/221
f 345/791/222 347/792/222 349/793/222 351/794/222 353/795/222 355/796/222 357/797/222 359/798/222 361/799/222 363/800/222 365/801/222 367/802/222 369/803/222 371/804/222 373/805/222 375/806/222 377/807/222 379/808/222 381/809/222 383/810/222 385/811/222 387/812/222 389/813/222 391/814/222 393/815/222 395/816/222 397/817/222 399/818/222 401/819/222 403/820/222 405/821/222 407/822/222
o LaserNozzle
v 0.180138 0.015958 0.290000
v 0.122780 -0.065958 0.290000
v 0.183334 0.013720 0.289616
v 0.125976 -0.068196 0.289616
v 0.186407 0.011568 0.288478
v 0.129050 -0.070348 0.288478
v 0.189240 0.009584 0.286629
v 0.131882 -0.072331 0.286629
v 0.191722 0.007846 0.284142
v 0.134365 -0.074069 0.284142
v 0.193760 0.006419 0.281111
v 0.136402 -0.075496 0.281111
v 0.195274 0.005359 0.277654
v 0.137916 -0.076556 0.277654
v 0.196206 0.004706 0.273902
v 0.138848 -0.077209 0.273902
v 0.196521 0.004486 0.270000
v 0.139163 -0.077429 0.270000
v 0.196206 0.004706 0.266098
v 0.138848 -0.077209 0.266098
v 0.195274 0.005359 0.262346
v 0.137916 -0.076556 0.262346
v 0.193760 0.006419 0.258888
v 0.136402 -0.075496 0.258888
v 0.191722 0.007846 0.255858
v 0.134365 -0.074069 0.255858
v 0.189240 0.009584 0.253370
v 0.131882 -0.072331 0.253370
v 0.186407 0.011568 0.251522
v 0.129050 -0.070348 0.251522
v 0.183334 0.013720 0.250384
v 0.125976 -0.068196 0.250384
v 0.180138 0.015958 0.250000
v 0.122780 -0.065958 0.250000
v 0.176942 0.018196 0.250384
v 0.119584 -0.063720 0.250384
v 0.173868 0.020348 0.251522
v 0.116511 -0.061568 0.251522
v 0.171036 0.022331 0.253370
v 0.113678 -0.059584 0.253370
v 0.168553 0.024069 0.255858
v 0.111196 -0.057846 0.255858
v 0.166516 0.025496 0.258888
v 0.109158 -0.056419 0.258888
v 0.165002 0.026556 0.262346
v 0.107644 -0.055359 0.262346
v 0.164070 0.027209 0.266098
v 0.106712 -0.054707 0.266098
v 0.163755 0.027429 0.270000
v 0.106397 -0.054486 0.270000
v 0.164070 0.027209 0.273902
v 0.106712 -0.054707 0.273902
v 0.165002 0.026556 0.277654
v 0.107644 -0.055359 0.277654
v 0.166516 0.025496 0.281111
v 0.109158 -0.056419 0.281111
v 0.168553 0.024069 0.284142
v 0.111196 -0.057846 0.284142
v 0.171036 0.022331 0.286629
v 0.113678 -0.059584 0.286629
v 0.173868 0.020348 0.288478
v 0.116511 -0.061568 0.288478
v 0.176942 0.018196 0.289616
v 0.119584 -0.063720 0.289616
vn 0.0803 0.0562 -0.9952
vn 0.2378 0.1665 -0.9569
vn 0.3861 0.2704 -0.8819
vn 0.5197 0.3639 -0.7730
vn 0.6332 0.4434 -0.6344
vn 0.7224 0.5058 -0.4714
vn 0.7839 0.5489 -0.2903
vn 0.8152 0.5708 -0.0980
vn 0.8152 0.5708 0.0980
vn 0.7839 0.5489 0.2903
vn 0.7224 0.5058 0.4714
vn 0.6332 0.4434 0.6344
vn 0.5197 0.3639 0.7730
vn 0.3861 0.2704 0.8819
vn 0.2378 0.1665 0.9569
vn 0.0803 0.0562 0.9952
vn -0.0803 -0.0562 0.9952
vn -0.2378 -0.1665 0.9569
vn -0.3861 -0.2704 0.8819
vn -0.5197 -0.3639 0.7730
vn -0.6332 -0.4434 0.6344
vn -0.7224 -0.5058 0.4714
vn -0.7839 -0.5489 0.2903
vn -0.8152 -0.5708 0.0980
vn -0.8152 -0.5708 -0.0980
vn -0.7839 -0.5489 -0.2903
vn -0.7224 -0.5058 -0.4714
vn -0.6332 -0.4434 -0.6344
vn -0.5197 -0.3639 -0.7730
vn -0.3861 -0.2704 -0.8819
vn -0.5736 0.8192 -0.0000
vn -0.2378 -0.1665 -0.9569
vn -0.0803 -0.0562 -0.9952
vn 0.5736 -0.8192 -0.0000
vt 1.000000 0.500000
vt 1.000000 1.000000
vt 0.968750 1.000000
vt 0.968750 0.500000
vt 0.937500 1.000000
vt 0.937500 0.500000
vt 0.906250 1.000000
vt 0.906250 0.500000
vt 0.875000 1.000000
vt 0.875000 0.500000
vt 0.843750 1.000000
vt 0.843750 0.500000
vt 0.812500 1.000000
vt 0.812500 0.500000
vt 0.781250 1.000000
vt 0.781250 0.500000
vt 0.750000 1.000000
vt 0.750000 0.500000
vt 0.718750 1.000000
vt 0.718750 0.500000
vt 0.687500 1.000000
vt 0.687500 0.500000
vt 0.656250 1.000000
vt 0.656250 0.500000
vt 0.625000 1.000000
vt 0.625000 0.500000
vt 0.593750 1.000000
vt 0.593750 0.500000
vt 0.562500 1.000000
vt 0.562500 0.500000
vt 0.531250 1.000000
vt 0.531250 0.500000
vt 0.500000 1.000000
vt 0.500000 0.500000
vt 0.468750 1.000000
vt 0.468750 0.500000
vt 0.437500 1.000000
vt 0.437500 0.500000
vt 0.406250 1.000000
vt 0.406250 0.500000
vt 0.375000 1.000000
vt 0.375000 0.500000
vt 0.343750 1.000000
vt 0.343750 0.500000
vt 0.312500 1.000000
vt 0.312500 0.500000
vt 0.281250 1.000000
vt 0.281250 0.500000
vt 0.250000 1.000000
vt 0.250000 0.500000
vt 0.218750 1.000000
vt 0.218750 0.500000
vt 0.187500 1.000000
vt 0.187500 0.500000
vt 0.156250 1.000000
vt 0.156250 0.500000
vt 0.125000 1.000000
vt 0.125000 0.500000
vt 0.093750 1.000000
vt 0.093750 0.500000
vt 0.062500 1.000000
vt 0.062500 0.500000
vt 0.296822 0.485388
vt 0.250000 0.490000
vt 0.203178 0.485388
vt 0.158156 0.471731
vt 0.116663 0.449553
vt 0.080294 0.419706
vt 0.050447 0.383337
vt 0.028269 0.341844
vt 0.014612 0.296822
vt 0.010000 0.250000
vt 0.014612 0.203178
vt 0.028269 0.158156
vt 0.050447 0.116663
vt 0.080294 0.080294
vt 0.116663 0.050447
vt 0.158156 0.028269
vt 0.203178 0.014612
vt 0.250000 0.010000
vt 0.296822 0.014612
vt 0.341844 0.028269
vt 0.383337 0.050447
vt 0.419706 0.080294
vt 0.449553 0.116663
vt 0.471731 0.158156
vt 0.485388 0.203178
vt 0.490000 0.250000
vt 0.485388 0.296822
vt 0.471731 0.341844
vt 0.449553 0.383337
vt 0.419706 0.419706
vt 0.383337 0.449553
vt 0.341844 0.471731
vt 0.031250 1.000000
vt 0.031250 0.500000
vt 0.000000 1.000000
vt 0.000000 0.500000
vt 0.750000 0.490000
vt 0.796822 0.485388
vt 0.841844 0.471731
vt 0.883337 0.449553
vt 0.919706 0.419706
vt 0.949553 0.383337
vt 0.971731 0.341844
vt 0.985388 0.296822
vt 0.990000 0.250000
vt 0.985388 0.203178
vt 0.971731 0.158156
vt 0.949553 0.116663
vt 0.919706 0.080294
vt 0.883337 0.050447
vt 0.841844 0.028269
vt 0.796822 0.014612
vt 0.750000 0.010000
vt 0.703178 0.014612
vt 0.658156 0.028269
vt 0.616663 0.050447
vt 0.580294 0.080294
vt 0.550447 0.116663
vt 0.528269 0.158156
vt 0.514612 0.203178
vt 0.510000 0.250000
vt 0.514612 0.296822
vt 0.528269 0.341844
vt 0.550447 0.383337
vt 0.580294 0.419706
vt 0.616663 0.449553
vt 0.658156 0.471731
vt 0.703178 0.485388
s 0
usemtl LaserBlue
f 409/823/223 410/824/223 412/825/223 411/826/223
f 411/826/224 412/825/224 414/827/224 413/828/224
f 413/828/225 414/827/225 416/829/225 415/830/225
f 415/830/226 416/829/226 418/831/226 417/832/226
f 417/832/227 418/831/227 420/833/227 419/834/227
f 419/834/228 420/833/228 422/835/228 421/836/228
f 421/836/229 422/835/229 424/837/229 423/838/229
f 423/838/230 424/837/230 426/839/230 425/840/230
f 425/840/231 426/839/231 428/841/231 427/842/231
f 427/842/232 428/841/232 430/843/232 429/844/232
f 429/844/233 430/843/233 432/845/233 431/846/233
f 431/846/234 432/845/234 434/847/234 433/848/234
f 433/848/235 434/847/235 436/849/235 435/850/235
f 435/850/236 436/849/236 438/851/236 437/852/236
f 437/852/237 438/851/237 440/853/237 439/854/237
f 439/854/238 440/853/238 442/855/238 441/856/238
f 441/856/239 442/855/239 444/857/239 443/858/239
f 443/858/240 444/857/240 446/859/240 445/860/240
f 445/860/241 446/859/241 448/861/241 447/862/241
f 447/862/242 448/861/242 450/863/242 449/864/242
f 449/864/243 450/863/243 452/865/243 451/866/243
f 451/866/244 452/865/244 454/867/244 453/868/244
f 453/868/245 454/867/245 456/869/245 455/870/245
f 455/870/246 456/869/246 458/871/246 457/872/246
f 457/872/247 458/871/247 460/873/247 459/874/247
f 459/874/248 460/873/248 462/875/248 461/876/248
f 461/876/249 462/875/249 464/877/249 463/878/249
f 463/878/250 464/877/250 466/879/250 465/880/250
f 465/880/251 466/879/251 468/881/251 467/882/251
f 467/882/252 468/881/252 470/883/252 469/884/252
f 412/885/253 410/886/253 472/887/253 470/888/253 468/889/253 466/890/253 464/891/253 462/892/253 460/893/253 458/894/253 456/895/253 454/896/253 452/897/253 450/898/253 448/899/253 446/900/253 444/901/253 442/902/253 440/903/253 438/904/253 436/905/253 434/906/253 432/907/253 430/908/253 428/909/253 426/910/253 424/911/253 422/912/253 420/913/253 418/914/253 416/915/253 414/916/253
f 469/884/254 470/883/254 472/917/254 471/918/254
f 471/918/255 472/917/255 410/919/255 409/920/255
f 409/921/256 411/922/256 413/923/256 415/924/256 417/925/256 419/926/256 421/927/256 423/928/256 425/929/256 427/930/256 429/931/256 431/932/256 433/933/256 435/934/256 437/935/256 439/936/256 441/937/256 443/938/256 445/939/256 447/940/256 449/941/256 451/942/256 453/943/256 455/944/256 457/945/256 459/946/256 461/947/256 463/948/256 465/949/256 467/950/256 469/951/256 471/952/256
o LaserBeam
v 0.576247 0.248394 0.274000
v 0.166671 -0.038394 0.274000
v 0.576695 0.247755 0.273923
v 0.167119 -0.039033 0.273923
v 0.577125 0.247140 0.273695
v 0.167549 -0.039648 0.273695
v 0.577522 0.246574 0.273326
v 0.167946 -0.040215 0.273326
v 0.577869 0.246077 0.272828
v 0.168293 -0.040711 0.272828
v 0.578155 0.245670 0.272222
v 0.168579 -0.041119 0.272222
v 0.578367 0.245367 0.271531
v 0.168791 -0.041421 0.271531
v 0.578497 0.245180 0.270780
v 0.168921 -0.041608 0.270780
v 0.578541 0.245118 0.270000
v 0.168965 -0.041671 0.270000
v 0.578497 0.245180 0.269220
v 0.168921 -0.041608 0.269220
v 0.578367 0.245367 0.268469
v 0.168791 -0.041421 0.268469
v 0.578155 0.245670 0.267778
v 0.168579 -0.041119 0.267778
v 0.577869 0.246077 0.267172
v 0.168293 -0.040711 0.267172
v 0.577522 0.246574 0.266674
v 0.167946 -0.040215 0.266674
v 0.577125 0.247140 0.266304
v 0.167549 -0.039648 0.266304
v 0.576695 0.247755 0.266077
v 0.167119 -0.039033 0.266077
v 0.576247 0.248394 0.266000
v 0.166671 -0.038394 0.266000
v 0.575799 0.249033 0.266077
v 0.166223 -0.037755 0.266077
v 0.575369 0.249648 0.266304
v 0.165793 -0.037140 0.266304
v 0.574972 0.250214 0.266674
v 0.165396 -0.036574 0.266674
v 0.574625 0.250711 0.267172
v 0.165049 -0.036077 0.267172
v 0.574339 0.251119 0.267778
v 0.164763 -0.035670 0.267778
v 0.574127 0.251421 0.268469
v 0.164551 -0.035367 0.268469
v 0.573997 0.251608 0.269220
v 0.164421 -0.035180 0.269220
v 0.573953 0.251671 0.270000
v 0.164377 -0.035118 0.270000
v 0.573997 0.251608 0.270780
v 0.164421 -0.035180 0.270780
v 0.574127 0.251421 0.271531
v 0.164551 -0.035367 0.271531
v 0.574339 0.251119 0.272222
v 0.164763 -0.035670 0.272222
v 0.574625 0.250711 0.272828
v 0.165049 -0.036077 0.272828
v 0.574972 0.250214 0.273326
v 0.165396 -0.036574 0.273326
v 0.575369 0.249648 0.273695
v 0.165793 -0.037140 0.273695
v 0.575799 0.249033 0.273923
v 0.166223 -0.037755 0.273923
vn 0.0562 0.0803 -0.9952
vn 0.1665 0.2378 -0.9569
vn 0.2704 0.3861 -0.8819
vn 0.3639 0.5197 -0.7730
vn 0.4434 0.6332 -0.6344
vn 0.5058 0.7224 -0.4714
vn 0.5489 0.7839 -0.2903
vn 0.5708 0.8152 -0.0980
vn 0.5708 0.8152 0.0980
vn 0.5489 0.7839 0.2903
vn 0.5058 0.7224 0.4714
vn 0.4434 0.6332 0.6344
vn 0.3639 0.5197 0.7730
vn 0.2704 0.3861 0.8819
vn 0.1665 0.2378 0.9569
vn 0.0562 0.0803 0.9952
vn -0.0562 -0.0803 0.9952
vn -0.1665 -0.2378 0.9569
vn -0.2704 -0.3861 0.8819
vn -0.3639 -0.5197 0.7730
vn -0.4434 -0.6332 0.6344
vn -0.5058 -0.7224 0.4714
vn -0.5489 -0.7839 0.2903
vn -0.5708 -0.8152 0.0980
vn -0.5708 -0.8152 -0.0980
vn -0.5489 -0.7839 -0.2903
vn -0.5058 -0.7224 -0.4714
vn -0.4434 -0.6332 -0.6344
vn -0.3639 -0.5197 -0.7730
vn -0.2704 -0.3861 -0.8819
vn -0.8192 0.5736 -0.0000
vn -0.1665 -0.2378 -0.9569
vn -0.0562 -0.0803 -0.9952
vn 0.8192 -0.5736 -0.0000
vt 1.000000 0.500000
vt 1.000000 1.000000
vt 0.968750 1.000000
vt 0.968750 0.500000
vt 0.937500 1.000000
vt 0.937500 0.500000
vt 0.906250 1.000000
vt 0.906250 0.500000
vt 0.875000 1.000000
vt 0.875000 0.500000
vt 0.843750 1.000000
vt 0.843750 0.500000
vt 0.812500 1.000000
vt 0.812500 0.500000
vt 0.781250 1.000000
vt 0.781250 0.500000
vt 0.750000 1.000000
vt 0.750000 0.500000
vt 0.718750 1.000000
vt 0.718750 0.500000
vt 0.687500 1.000000
vt 0.687500 0.500000
vt 0.656250 1.000000
vt 0.656250 0.500000
vt 0.625000 1.000000
vt 0.625000 0.500000
vt 0.593750 1.000000
vt 0.593750 0.500000
vt 0.562500 1.000000
vt 0.562500 0.500000
vt 0.531250 1.000000
vt 0.531250 0.500000
vt 0.500000 1.000000
vt 0.500000 0.500000
vt 0.468750 1.000000
vt 0.468750 0.500000
vt 0.437500 1.000000
vt 0.437500 0.500000
vt 0.406250 1.000000
vt 0.406250 0.500000
vt 0.375000 1.000000
vt 0.375000 0.500000
vt 0.343750 1.000000
vt 0.343750 0.500000
vt 0.312500 1.000000
vt 0.312500 0.500000
vt 0.281250 1.000000
vt 0.281250 0.500000
vt 0.250000 1.000000
vt 0.250000 0.500000
vt 0.218750 1.000000
vt 0.218750 0.500000
vt 0.187500 1.000000
vt 0.187500 0.500000
vt 0.156250 1.000000
vt 0.156250 0.500000
vt 0.125000 1.000000
vt 0.125000 0.500000
vt 0.093750 1.000000
vt 0.093750 0.500000
vt 0.062500 1.000000
vt 0.062500 0.500000
vt 0.296822 0.485388
vt 0.250000 0.490000
vt 0.203178 0.485388
vt 0.158156 0.471731
vt 0.116663 0.449553
vt 0.080294 0.419706
vt 0.050447 0.383337
vt 0.028269 0.341844
vt 0.014612 0.296822
vt 0.010000 0.250000
vt 0.014612 0.203178
vt 0.028269 0.158156
vt 0.050447 0.116663
vt 0.080294 0.080294
vt 0.116663 0.050447
vt 0.158156 0.028269
vt 0.203178 0.014612
vt 0.250000 0.010000
vt 0.296822 0.014612
vt 0.341844 0.028269
vt 0.383337 0.050447
vt 0.419706 0.080294
vt 0.449553 0.116663
vt 0.471731 0.158156
vt 0.485388 0.203178
vt 0.490000 0.250000
vt 0.485388 0.296822
vt 0.471731 0.341844
vt 0.449553 0.383337
vt 0.419706 0.419706
vt 0.383337 0.449553
vt 0.341844 0.471731
vt 0.031250 1.000000
vt 0.031250 0.500000
vt 0.000000 1.000000
vt 0.000000 0.500000
vt 0.750000 0.490000
vt 0.796822 0.485388
vt 0.841844 0.471731
vt 0.883337 0.449553
vt 0.919706 0.419706
vt 0.949553 0.383337
vt 0.971731 0.341844
vt 0.985388 0.296822
vt 0.990000 0.250000
vt 0.985388 0.203178
vt 0.971731 0.158156
vt 0.949553 0.116663
vt 0.919706 0.080294
vt 0.883337 0.050447
vt 0.841844 0.028269
vt 0.796822 0.014612
vt 0.750000 0.010000
vt 0.703178 0.014612
vt 0.658156 0.028269
vt 0.616663 0.050447
vt 0.580294 0.080294
vt 0.550447 0.116663
vt 0.528269 0.158156
vt 0.514612 0.203178
vt 0.510000 0.250000
vt 0.514612 0.296822
vt 0.528269 0.341844
vt 0.550447 0.383337
vt 0.580294 0.419706
vt 0.616663 0.449553
vt 0.658156 0.471731
vt 0.703178 0.485388
s 0
usemtl Beam
f 473/953/257 474/954/257 476/955/257 475/956/257
f 475/956/258 476/955/258 478/957/258 477/958/258
f 477/958/259 478/957/259 480/959/259 479/960/259
f 479/960/260 480/959/260 482/961/260 481/962/260
f 481/962/261 482/961/261 484/963/261 483/964/261
f 483/964/262 484/963/262 486/965/262 485/966/262
f 485/966/263 486/965/263 488/967/263 487/968/263
f 487/968/264 488/967/264 490/969/264 489/970/264
f 489/970/265 490/969/265 492/971/265 491/972/265
f 491/972/266 492/971/266 494/973/266 493/974/266
f 493/974/267 494/973/267 496/975/267 495/976/267
f 495/976/268 496/975/268 498/977/268 497/978/268
f 497/978/269 498/977/269 500/979/269 499/980/269
f 499/980/270 500/979/270 502/981/270 501/982/270
f 501/982/271 502/981/271 504/983/271 503/984/271
f 503/984/272 504/983/272 506/985/272 505/986/272
f 505/986/273 506/985/273 508/987/273 507/988/273
f 507/988/274 508/987/274 510/989/274 509/990/274
f 509/990/275 510/989/275 512/991/275 511/992/275
f 511/992/276 512/991/276 514/993/276 513/994/276
f 513/994/277 514/993/277 516/995/277 515/996/277
f 515/996/278 516/995/278 518/997/278 517/998/278
f 517/998/279 518/997/279 520/999/279 519/1000/279
f 519/1000/280 520/999/280 522/1001/280 521/1002/280
f 521/1002/281 522/1001/281 524/1003/281 523/1004/281
f 523/1004/282 524/1003/282 526/1005/282 525/1006/282
f 525/1006/283 526/1005/283 528/1007/283 527/1008/283
f 527/1008/284 528/1007/284 530/1009/284 529/1010/284
f 529/1010/285 530/1009/285 532/1011/285 531/1012/285
f 531/1012/286 532/1011/286 534/1013/286 533/1014/286
f 476/1015/287 474/1016/287 536/1017/287 534/1018/287 532/1019/287 530/1020/287 528/1021/287 526/1022/287 524/1023/287 522/1024/287 520/1025/287 518/1026/287 516/1027/287 514/1028/287 512/1029/287 510/1030/287 508/1031/287 506/1032/287 504/1033/287 502/1034/287 500/1035/287 498/1036/287 496/1037/287 494/1038/287 492/1039/287 490/1040/287 488/1041/287 486/1042/287 484/1043/287 482/1044/287 480/1045/287 478/1046/287
f 533/1014/288 534/1013/288 536/1047/288 535/1048/288
f 535/1048/289 536/1047/289 474/1049/289 473/1050/289
f 473/1051/290 475/1052/290 477/1053/290 479/1054/290 481/1055/290 483/1056/290 485/1057/290 487/1058/290 489/1059/290 491/1060/290 493/1061/290 495/1062/290 497/1063/290 499/1064/290 501/1065/290 503/1066/290 505/1067/290 507/1068/290 509/1069/290 511/1070/290 513/1071/290 515/1072/290 517/1073/290 519/1074/290 521/1075/290 523/1076/290 525/1077/290 527/1078/290 529/1079/290 531/1080/290 533/1081/290 535/1082/290
